<svg class="svg-icon" style="width: 1em; height: 1em;vertical-align: middle;fill: currentColor;overflow: hidden;" viewBox="0 0 1024 1024" version="1.1" xmlns="http://www.w3.org/2000/svg"><path d="M617.472 702.464h-215.04c-19.456 0-35.84-16.384-35.84-35.84v-307.2c0-19.456 16.384-35.84 35.84-35.84h215.04c19.456 0 35.84 16.384 35.84 35.84V665.6c0 20.48-16.384 36.864-35.84 36.864z m-215.04-360.448c-9.216 0-17.408 8.192-17.408 17.408V665.6c0 9.216 8.192 17.408 17.408 17.408h215.04c9.216 0 17.408-8.192 17.408-17.408V359.424c0-9.216-8.192-17.408-17.408-17.408h-215.04zM340.992 332.8h-18.432v-13.312c0-19.456 16.384-35.84 35.84-35.84h18.432v18.432H358.4c-9.216 0-17.408 8.192-17.408 17.408v13.312zM661.504 741.376h-18.432v-18.432h18.432c9.216 0 17.408-8.192 17.408-17.408v-13.312h18.432v13.312c0 20.48-15.36 35.84-35.84 35.84zM375.808 741.376h-18.432c-19.456 0-35.84-16.384-35.84-35.84v-13.312h18.432v13.312c0 9.216 8.192 17.408 17.408 17.408h18.432v18.432zM697.344 332.8h-18.432v-13.312c0-9.216-8.192-17.408-17.408-17.408h-18.432v-18.432h18.432c19.456 0 35.84 16.384 35.84 35.84v13.312z" fill="#404066" /><path d="M430.08 399.36h159.744v18.432H430.08zM430.08 444.416h159.744v18.432H430.08zM430.08 488.448h159.744v18.432H430.08zM430.08 532.48h80.896v18.432H430.08z" fill="#404066" /></svg>